/* XPM */
static char * logo_xpm[] = {
"60 60 114 2",
"  	c None",
". 	c #8B008B",
"+ 	c #8C008B",
"@ 	c #8E0088",
"# 	c #89008C",
"$ 	c #8A0089",
"% 	c #8C0089",
"& 	c #8A008C",
"* 	c #8B0088",
"= 	c #2800F8",
"- 	c #2700F4",
"; 	c #2500E4",
"> 	c #8C008C",
", 	c #8A008A",
"' 	c #8E0085",
") 	c #2900FD",
"! 	c #2900FC",
"~ 	c #2600EA",
"{ 	c #2600EE",
"] 	c #2800F7",
"^ 	c #150084",
"/ 	c #88008D",
"( 	c #8A0088",
"_ 	c #8C0086",
": 	c #8F0086",
"< 	c #2900FF",
"[ 	c #1E00BC",
"} 	c #080033",
"| 	c #0B0048",
"1 	c #16008B",
"2 	c #07002B",
"3 	c #89008A",
"4 	c #8E0087",
"5 	c #87008E",
"6 	c #900086",
"7 	c #1D00B5",
"8 	c #02000A",
"9 	c #2800F9",
"0 	c #2600ED",
"a 	c #2800FC",
"b 	c #2500E9",
"c 	c #89008E",
"d 	c #8A008B",
"e 	c #8D0088",
"f 	c #89008B",
"g 	c #2100CF",
"h 	c #2400E3",
"i 	c #2000C7",
"j 	c #2500E6",
"k 	c #2900FE",
"l 	c #8C008D",
"m 	c #87008F",
"n 	c #000000",
"o 	c #1C00B0",
"p 	c #2600EF",
"q 	c #2100D0",
"r 	c #2800FA",
"s 	c #0C004A",
"t 	c #080035",
"u 	c #150080",
"v 	c #1C00AF",
"w 	c #2800F5",
"x 	c #1E00BB",
"y 	c #2700F6",
"z 	c #0B0044",
"A 	c #2300DD",
"B 	c #19009A",
"C 	c #88008C",
"D 	c #1900A0",
"E 	c #2400DE",
"F 	c #2600F0",
"G 	c #0B0046",
"H 	c #180096",
"I 	c #8B0089",
"J 	c #2800FB",
"K 	c #2300DB",
"L 	c #060022",
"M 	c #2600EB",
"N 	c #0C004C",
"O 	c #11006E",
"P 	c #8E0086",
"Q 	c #2700F3",
"R 	c #2700F2",
"S 	c #19009B",
"T 	c #010005",
"U 	c #2200D3",
"V 	c #2400DF",
"W 	c #2100CE",
"X 	c #04001B",
"Y 	c #2600EC",
"Z 	c #2300DC",
"` 	c #180094",
" .	c #2300DA",
"..	c #2500E3",
"+.	c #1D00B3",
"@.	c #080036",
"#.	c #8E0089",
"$.	c #8C0085",
"%.	c #0A0040",
"&.	c #050020",
"*.	c #0B0045",
"=.	c #070029",
"-.	c #010007",
";.	c #8F0085",
">.	c #8B0087",
",.	c #2500E7",
"'.	c #0A003B",
").	c #8C008A",
"!.	c #8E008A",
"~.	c #8A008D",
"{.	c #8D008A",
"].	c #90008B",
"^.	c #89008F",
"/.	c #8B008A",
"                                                                                                                        ",
"                                                                                                                        ",
"                                                                                                                        ",
"                                                                                                                        ",
"                                                                                                                        ",
"                                                                                                                        ",
"                                                                                                                        ",
"                                                                                                                        ",
"                                                                                                                        ",
"                                                                                                                        ",
"                                                                                                                        ",
"                                                                                                                        ",
"                                                                                                                        ",
"                                                                                                                        ",
"                                                                                                                        ",
"                                                                                                                        ",
"                                                                                                                        ",
"                                                                                                                        ",
"                                                                                                                        ",
"                                                                                                                        ",
"                                          . + @                                                                         ",
"                                      # $ $ $ $ %                                                                       ",
"                                    & $ $ $ $ $ $ *                                                                     ",
"    = = - ;                       # $ $ $ $ > , $ $ '                                                                   ",
"  ) ! ~ { ] ^                   / $ $ $ ( _   $ $ $ :                                                                   ",
"- < [ } | 1 2                   3 $ $ $ 4   5 $ $ $ 6                                                                   ",
"{ < 7 8         9 = 0 a 9 b     c d $ e     f $ $ *                                                                     ",
"  a 9 g         9 < h i j k j       l     m $ $ $ 4     n n       n n n n n n n n n   n n         n n n   n n           ",
"  o p k = q     = r s 8 t ; r u           3 $ $ $       n n       n n n     n n   n n n n n       n n n   n n           ",
"      v w ) x   y 9 z     A k B         C $ $ $ e       n n       n n       n n       n n n     n n n     n n           ",
"        D a E   F 9 G     0 k H         $ $ $ I         n n n n n n n       n n       n n n n   n n n     n n           ",
"          J K L M r N     9 9 O       f $ $ $ P         n n       n n       n n       n   n n n n   n     n n           ",
"  ) Q R J r S T 0 k U V r k W X     C $ $ $ *           n n       n n       n n       n     n n     n     n n           ",
"  ; Y Y Z ` X   - )  .b ..+.@.    m , $ $ $ #.l , $.    n n       n n       n n       n n   n n     n n   n n     n n   ",
"    %.%.&.      ] 9 *.t =.-.      3 $ $ $ $ $ $ $ $ ;.  n n       n n       n n       n n     n   n n n   n n n n n n   ",
"                = 9 z           C $ $ $ $ $ $ $ $ $ >.                                                                  ",
"                ,. .'.          $ $ $ $ $ $ $ I ).).!.                                                                  ",
"                                ~.$ $ $ I {.].                                                                          ",
"                                  ^./.@                                                                                 ",
"                                                                                                                        ",
"                                                                                                                        ",
"                                                                                                                        ",
"                                                                                                                        ",
"                                                                                                                        ",
"                                                                                                                        ",
"                                                                                                                        ",
"                                                                                                                        ",
"                                                                                                                        ",
"                                                                                                                        ",
"                                                                                                                        ",
"                                                                                                                        ",
"                                                                                                                        ",
"                                                                                                                        ",
"                                                                                                                        ",
"                                                                                                                        ",
"                                                                                                                        ",
"                                                                                                                        ",
"                                                                                                                        ",
"                                                                                                                        ",
"                                                                                                                        "};
